# Blender v2.78 (sub 0) OBJ File: ''
# www.blender.org
mtllib bulb.mtl
o Bulb_Circle.001
v 0.000000 0.000000 -1.000000
v -0.707107 0.000000 -0.707107
v -1.000000 0.000000 0.000000
v -0.707107 0.000000 0.707107
v 0.000000 0.000000 1.000000
v 0.707107 0.000000 0.707107
v 1.000000 0.000000 -0.000000
v 0.707107 0.000000 -0.707107
v 0.000000 0.522952 -0.922875
v -0.652571 0.522952 -0.652571
v -0.922875 0.522952 0.000000
v -0.652571 0.522952 0.652571
v 0.000000 0.522952 0.922875
v 0.652571 0.522952 0.652571
v 0.922875 0.522952 -0.000000
v 0.652571 0.522952 -0.652571
v 0.000000 0.972263 -0.542029
v -0.383272 0.972263 -0.383272
v -0.542029 0.972263 0.000000
v -0.383272 0.972263 0.383272
v 0.000000 0.972263 0.542029
v 0.383272 0.972263 0.383272
v 0.542029 0.972263 -0.000000
v 0.383272 0.972263 -0.383272
v 0.000000 1.088572 -0.117490
v -0.083078 1.088572 -0.083078
v -0.117490 1.088572 0.000000
v -0.083078 1.088572 0.083078
v 0.000000 1.088572 0.117490
v 0.083078 1.088572 0.083078
v 0.117490 1.088572 -0.000000
v 0.083078 1.088572 -0.083078
v 0.877197 -0.506020 -0.000000
v 0.000000 1.103693 -0.000000
v 0.620272 -0.506020 0.620272
v 0.000000 -0.506020 0.877197
v -0.620272 -0.506020 0.620272
v -0.877197 -0.506020 0.000000
v -0.620272 -0.506020 -0.620272
v 0.000000 -0.506020 -0.877197
v 0.620272 -0.506020 -0.620272
v 0.682152 -0.955274 -0.000000
v 0.482355 -0.955274 0.482354
v 0.000000 -0.955274 0.682152
v -0.482355 -0.955274 0.482355
v -0.682152 -0.955274 0.000000
v -0.482355 -0.955274 -0.482355
v 0.000000 -0.955274 -0.682152
v 0.482355 -0.955274 -0.482355
v 0.636247 -1.270505 -0.000000
v 0.449894 -1.270505 0.449894
v 0.000000 -1.270505 0.636247
v -0.449894 -1.270505 0.449894
v -0.636247 -1.270505 0.000000
v -0.449894 -1.270505 -0.449894
v 0.000000 -1.270505 -0.636247
v 0.449894 -1.270505 -0.449894
v 0.636247 -1.699893 -0.000000
v 0.449894 -1.699893 0.449894
v 0.000000 -1.699893 0.636247
v -0.449894 -1.699893 0.449894
v -0.636247 -1.699893 0.000000
v -0.449894 -1.699893 -0.449894
v 0.000000 -1.699893 -0.636247
v 0.449894 -1.699893 -0.449894
v 0.239388 -1.968160 -0.000000
v 0.169273 -1.968160 0.169273
v 0.000000 -1.968160 0.239388
v -0.169273 -1.968160 0.169273
v -0.239388 -1.968160 0.000000
v -0.169273 -1.968160 -0.169273
v 0.000000 -1.968160 -0.239388
v 0.169273 -1.968160 -0.169273
v 0.000000 -1.988709 0.000000
vn -0.7064 0.0438 -0.7064
vn 0.0000 0.0438 -0.9990
vn 0.0000 -0.3888 -0.9213
vn -0.6514 -0.3888 -0.6514
vn 0.7064 0.0438 -0.7064
vn 0.9990 0.0438 0.0000
vn 0.9213 -0.3888 0.0000
vn 0.6514 -0.3888 -0.6514
vn 0.7064 0.0438 0.7064
vn 0.0000 0.0438 0.9990
vn 0.0000 -0.3888 0.9213
vn 0.6514 -0.3888 0.6514
vn -0.7064 0.0438 0.7064
vn -0.6514 -0.3888 0.6514
vn -0.9990 0.0438 0.0000
vn -0.9213 -0.3888 0.0000
vn -0.4142 -0.8105 0.4142
vn 0.0000 -0.8105 0.5857
vn -0.4142 -0.8105 -0.4142
vn -0.5857 -0.8105 0.0000
vn 0.4142 -0.8105 -0.4142
vn 0.0000 -0.8105 -0.5857
vn 0.4142 -0.8105 0.4142
vn 0.5857 -0.8105 0.0000
vn 0.2130 -0.9770 0.0000
vn 0.1506 -0.9770 -0.1506
vn 0.0000 -0.9770 0.2130
vn 0.1506 -0.9770 0.1506
vn -0.1506 -0.9770 0.1506
vn -0.1506 -0.9770 -0.1506
vn -0.2130 -0.9770 0.0000
vn 0.0000 -0.9770 -0.2130
vn 0.0000 -1.0000 0.0000
vn -0.6718 0.3121 -0.6718
vn 0.0000 0.3121 -0.9500
vn 0.6718 0.3121 -0.6718
vn 0.9500 0.3121 0.0000
vn 0.6718 0.3121 0.6718
vn 0.0000 0.3121 0.9500
vn -0.6718 0.3121 0.6718
vn -0.9500 0.3121 0.0000
vn 0.6783 0.2824 0.6783
vn 0.0000 0.2824 0.9593
vn 0.6783 0.2824 -0.6783
vn 0.9593 0.2824 0.0000
vn -0.6783 0.2824 -0.6783
vn 0.0000 0.2824 -0.9593
vn -0.6783 0.2824 0.6783
vn -0.9593 0.2824 0.0000
vn -0.7052 0.0735 0.7052
vn -0.9973 0.0735 0.0000
vn 0.9973 0.0735 0.0000
vn 0.7052 0.0735 0.7052
vn 0.0000 0.0735 -0.9973
vn 0.7052 0.0735 -0.7052
vn -0.7052 0.0735 -0.7052
vn 0.0000 0.0735 0.9973
vn 0.6393 0.4272 0.6393
vn 0.0000 0.4272 0.9041
vn 0.6393 0.4272 -0.6393
vn 0.9041 0.4272 0.0000
vn -0.6393 0.4272 -0.6393
vn 0.0000 0.4272 -0.9041
vn -0.6393 0.4272 0.6393
vn -0.9041 0.4272 0.0000
vn -0.3868 0.9221 0.0000
vn -0.2735 0.9221 -0.2735
vn 0.0000 0.9221 0.3868
vn -0.2735 0.9221 0.2735
vn 0.2735 0.9221 0.2735
vn 0.2735 0.9221 -0.2735
vn 0.3868 0.9221 0.0000
vn 0.0000 0.9221 -0.3868
vn 0.0000 1.0000 0.0000
usemtl None
s 1
f 6//1 5//2 13//3 14//4
f 4//5 3//6 11//7 12//8
f 2//9 1//10 9//11 10//12
f 1//10 8//13 16//14 9//11
f 7//15 6//1 14//4 15//16
f 5//2 4//5 12//8 13//3
f 3//6 2//9 10//12 11//7
f 8//13 7//15 15//16 16//14
f 9//11 16//14 24//17 17//18
f 15//16 14//4 22//19 23//20
f 13//3 12//8 20//21 21//22
f 11//7 10//12 18//23 19//24
f 16//14 15//16 23//20 24//17
f 14//4 13//3 21//22 22//19
f 12//8 11//7 19//24 20//21
f 10//12 9//11 17//18 18//23
f 20//21 19//24 27//25 28//26
f 18//23 17//18 25//27 26//28
f 17//18 24//17 32//29 25//27
f 23//20 22//19 30//30 31//31
f 21//22 20//21 28//26 29//32
f 19//24 18//23 26//28 27//25
f 24//17 23//20 31//31 32//29
f 22//19 21//22 29//32 30//30
f 32//29 31//31 34//33
f 30//30 29//32 34//33
f 28//26 27//25 34//33
f 26//28 25//27 34//33
f 25//27 32//29 34//33
f 31//31 30//30 34//33
f 29//32 28//26 34//33
f 27//25 26//28 34//33
f 5//2 6//1 35//34 36//35
f 3//6 4//5 37//36 38//37
f 1//10 2//9 39//38 40//39
f 8//13 1//10 40//39 41//40
f 6//1 7//15 33//41 35//34
f 4//5 5//2 36//35 37//36
f 2//9 3//6 38//37 39//38
f 7//15 8//13 41//40 33//41
f 40//39 39//38 47//42 48//43
f 38//37 37//36 45//44 46//45
f 36//35 35//34 43//46 44//47
f 33//41 41//40 49//48 42//49
f 39//38 38//37 46//45 47//42
f 37//36 36//35 44//47 45//44
f 35//34 33//41 42//49 43//46
f 41//40 40//39 48//43 49//48
f 42//49 49//48 57//50 50//51
f 47//42 46//45 54//52 55//53
f 45//44 44//47 52//54 53//55
f 43//46 42//49 50//51 51//56
f 49//48 48//43 56//57 57//50
f 48//43 47//42 55//53 56//57
f 46//45 45//44 53//55 54//52
f 44//47 43//46 51//56 52//54
f 56//57 55//53 63//58 64//59
f 54//52 53//55 61//60 62//61
f 52//54 51//56 59//62 60//63
f 50//51 57//50 65//64 58//65
f 55//53 54//52 62//61 63//58
f 53//55 52//54 60//63 61//60
f 51//56 50//51 58//65 59//62
f 57//50 56//57 64//59 65//64
f 59//62 58//65 66//66 67//67
f 65//64 64//59 72//68 73//69
f 64//59 63//58 71//70 72//68
f 62//61 61//60 69//71 70//72
f 60//63 59//62 67//67 68//73
f 58//65 65//64 73//69 66//66
f 63//58 62//61 70//72 71//70
f 61//60 60//63 68//73 69//71
f 71//70 70//72 74//74
f 69//71 68//73 74//74
f 67//67 66//66 74//74
f 73//69 72//68 74//74
f 72//68 71//70 74//74
f 70//72 69//71 74//74
f 68//73 67//67 74//74
f 66//66 73//69 74//74
