# Blender v2.78 (sub 0) OBJ File: 'toyota.blend'
# www.blender.org
mtllib toyota_wheel_fr.mtl
o Circle.002_Circle
v -1.001680 0.369412 1.262930
v -1.001680 0.507178 1.290333
v -1.001680 0.623970 1.368371
v -1.001680 0.702009 1.485164
v -1.001680 0.729412 1.622930
v -1.001680 0.702009 1.760696
v -1.001680 0.623970 1.877488
v -1.001680 0.507178 1.955527
v -1.001680 0.369412 1.982930
v -1.001680 0.231646 1.955527
v -1.001680 0.114854 1.877488
v -1.001680 0.036815 1.760696
v -1.001680 0.009412 1.622930
v -1.001680 0.036815 1.485164
v -1.001680 0.114854 1.368371
v -1.001680 0.231646 1.290333
v -1.001680 0.369412 1.334930
v -1.001680 0.479625 1.356853
v -1.001680 0.573059 1.419283
v -1.001680 0.635489 1.512717
v -1.001680 0.657412 1.622930
v -1.001680 0.635489 1.733143
v -1.001680 0.573059 1.826577
v -1.001680 0.479625 1.889007
v -1.001680 0.369412 1.910930
v -1.001680 0.259199 1.889007
v -1.001680 0.165765 1.826577
v -1.001680 0.103335 1.733143
v -1.001680 0.081412 1.622930
v -1.001680 0.103335 1.512717
v -1.001680 0.165765 1.419283
v -1.001680 0.259199 1.356853
v -0.701680 0.369412 1.262930
v -0.701680 0.507178 1.290333
v -0.701680 0.623970 1.368371
v -0.701680 0.702009 1.485164
v -0.701680 0.729412 1.622930
v -0.701680 0.702009 1.760696
v -0.701680 0.623970 1.877488
v -0.701680 0.507178 1.955527
v -0.701680 0.369412 1.982930
v -0.701680 0.231646 1.955527
v -0.701680 0.114854 1.877488
v -0.701680 0.036815 1.760696
v -0.701680 0.009412 1.622930
v -0.701680 0.036815 1.485164
v -0.701680 0.114854 1.368371
v -0.701680 0.231646 1.290333
v -0.701680 0.369412 1.334930
v -0.701680 0.479625 1.356853
v -0.701680 0.573059 1.419283
v -0.701680 0.635489 1.512717
v -0.701680 0.657412 1.622930
v -0.701680 0.635489 1.733143
v -0.701680 0.573059 1.826577
v -0.701680 0.479625 1.889007
v -0.701680 0.369412 1.910930
v -0.701680 0.259199 1.889007
v -0.701680 0.165765 1.826577
v -0.701680 0.103335 1.733143
v -0.701680 0.081412 1.622930
v -0.701680 0.103335 1.512717
v -0.701680 0.165765 1.419283
v -0.701680 0.259199 1.356853
v -0.987029 0.369412 1.990174
v -0.716331 0.369412 1.990174
v -0.716331 0.228874 1.962219
v -0.987029 0.228874 1.962219
v -0.716331 0.109731 1.882611
v -0.987029 0.109731 1.882611
v -0.716331 0.030123 1.763468
v -0.987029 0.030123 1.763468
v -0.716331 0.002168 1.622930
v -0.987029 0.002168 1.622930
v -0.716331 0.030123 1.482392
v -0.987029 0.030123 1.482392
v -0.716331 0.109731 1.363249
v -0.987029 0.109731 1.363249
v -0.987029 0.369412 1.255686
v -0.716331 0.369412 1.255686
v -0.716331 0.509950 1.283641
v -0.987029 0.509950 1.283641
v -0.716331 0.228874 1.283641
v -0.987029 0.228874 1.283641
v -0.716331 0.629093 1.363249
v -0.987029 0.629093 1.363249
v -0.716331 0.708701 1.482392
v -0.987029 0.708701 1.482392
v -0.716331 0.736656 1.622930
v -0.987029 0.736656 1.622930
v -0.716331 0.708701 1.763468
v -0.987029 0.708701 1.763468
v -0.716331 0.629093 1.882611
v -0.987029 0.629093 1.882611
v -0.716331 0.509950 1.962219
v -0.987029 0.509950 1.962219
v -0.988846 0.369412 1.360893
v -0.988846 0.469689 1.380840
v -0.988846 0.554700 1.437642
v -0.988846 0.611502 1.522653
v -0.988846 0.631449 1.622930
v -0.988846 0.611502 1.723207
v -0.988846 0.554700 1.808218
v -0.988846 0.469689 1.865020
v -0.988846 0.369412 1.884966
v -0.988846 0.269135 1.865020
v -0.988846 0.184124 1.808218
v -0.988846 0.127322 1.723207
v -0.988846 0.107375 1.622930
v -0.988846 0.127322 1.522653
v -0.988846 0.184124 1.437642
v -0.988846 0.269135 1.380840
v -0.714514 0.369412 1.360893
v -0.714514 0.469689 1.380840
v -0.714514 0.554700 1.437642
v -0.714514 0.611502 1.522653
v -0.714514 0.631449 1.622930
v -0.714514 0.611502 1.723207
v -0.714514 0.554700 1.808218
v -0.714514 0.469689 1.865020
v -0.714514 0.369412 1.884966
v -0.714514 0.269135 1.865020
v -0.714514 0.184124 1.808218
v -0.714514 0.127322 1.723207
v -0.714514 0.107375 1.622930
v -0.714514 0.127322 1.522653
v -0.714514 0.184124 1.437642
v -0.714514 0.269135 1.380840
v -0.988846 0.369412 1.622930
v -0.714514 0.369412 1.622930
vn 0.8203 -0.5284 0.2189
vn 0.9797 0.1850 -0.0766
vn 0.9797 0.1416 -0.1416
vn 0.8203 -0.4044 0.4044
vn 0.8203 0.5284 -0.2189
vn 0.9797 -0.1850 0.0766
vn 0.9797 -0.1416 0.1416
vn 0.8203 0.4044 -0.4044
vn 0.8203 -0.5719 0.0000
vn 0.9797 0.2002 0.0000
vn 0.8203 0.5719 0.0000
vn 0.9797 -0.2002 0.0000
vn 0.8203 -0.5284 -0.2188
vn 0.9797 0.1850 0.0766
vn 0.8203 0.5284 0.2189
vn 0.9797 -0.1850 -0.0766
vn 0.8203 -0.4044 -0.4044
vn 0.9797 0.1416 0.1416
vn 0.8203 0.4044 0.4044
vn 0.9797 -0.1416 -0.1416
vn 0.8203 -0.2189 -0.5284
vn 0.9797 0.0766 0.1850
vn 0.8203 0.2189 0.5284
vn 0.9797 -0.0766 -0.1850
vn 0.8203 0.0000 -0.5719
vn 0.9797 0.0000 0.2002
vn 0.8203 -0.2189 0.5284
vn 0.9797 0.0766 -0.1850
vn 0.9797 0.0000 -0.2002
vn 0.8203 0.0000 0.5719
vn 0.8203 0.2189 -0.5284
vn 0.9797 -0.0766 0.1850
vn -0.8203 -0.5284 0.2189
vn -0.8203 -0.4044 0.4044
vn -0.9797 0.1416 -0.1416
vn -0.9797 0.1850 -0.0766
vn -0.8203 0.5284 -0.2189
vn -0.8203 0.4044 -0.4044
vn -0.9797 -0.1416 0.1416
vn -0.9797 -0.1850 0.0766
vn -0.8203 -0.5719 0.0000
vn -0.9797 0.2002 0.0000
vn -0.8203 0.5719 0.0000
vn -0.9797 -0.2002 0.0000
vn -0.8203 -0.5284 -0.2189
vn -0.9797 0.1850 0.0766
vn -0.8203 0.5284 0.2189
vn -0.9797 -0.1850 -0.0766
vn -0.8203 -0.4044 -0.4044
vn -0.9797 0.1416 0.1416
vn -0.8203 0.4044 0.4044
vn -0.9797 -0.1416 -0.1416
vn -0.8203 -0.2189 -0.5284
vn -0.9797 0.0766 0.1850
vn -0.8203 0.2189 0.5284
vn -0.9797 -0.0766 -0.1850
vn -0.8203 0.0000 -0.5719
vn -0.9797 0.0000 0.2002
vn -0.8203 -0.2189 0.5284
vn -0.8203 0.0000 0.5719
vn -0.9797 0.0000 -0.2002
vn -0.9797 0.0766 -0.1850
vn -0.8203 0.2189 -0.5284
vn -0.9797 -0.0766 0.1850
vn -0.9672 0.1797 -0.1797
vn -0.9672 0.2348 -0.0972
vn -0.2215 0.3731 -0.9009
vn -0.2215 0.0000 -0.9751
vn -0.9672 -0.0972 -0.2348
vn -0.9672 0.0000 -0.2541
vn -0.2215 0.6895 -0.6895
vn 0.9672 -0.1797 0.1797
vn 0.9672 -0.0972 0.2348
vn -0.2215 0.9009 -0.3731
vn -0.9672 0.0972 -0.2348
vn -0.2215 0.9751 0.0000
vn -0.9672 -0.1797 -0.1797
vn -0.2215 0.9009 0.3731
vn 0.9672 0.0000 0.2541
vn -0.2215 0.6895 0.6895
vn -0.2215 -0.3731 0.9009
vn -0.2215 0.0000 0.9751
vn -0.2215 0.3731 0.9009
vn -0.2215 -0.6895 0.6895
vn -0.9672 -0.2348 -0.0972
vn -0.2215 -0.9009 0.3731
vn 0.9672 0.0972 0.2348
vn -0.9672 -0.2541 0.0000
vn -0.2215 -0.9751 0.0000
vn 0.9672 0.1797 0.1797
vn -0.9672 -0.2348 0.0972
vn -0.2215 -0.9009 -0.3731
vn 0.9672 0.2348 0.0972
vn -0.9672 -0.1797 0.1797
vn -0.2215 -0.6895 -0.6895
vn 0.9672 0.2541 0.0000
vn -0.2215 -0.3731 -0.9009
vn -0.9672 -0.0972 0.2348
vn 0.2215 -0.3731 -0.9009
vn 0.2215 0.0000 -0.9751
vn 0.2215 -0.6895 -0.6895
vn 0.2215 -0.9009 -0.3731
vn 0.2215 -0.9751 0.0000
vn 0.2215 -0.9009 0.3731
vn 0.2215 -0.6895 0.6895
vn 0.2215 0.3731 0.9009
vn 0.2215 0.0000 0.9751
vn 0.2215 -0.3731 0.9009
vn 0.2215 0.6895 0.6895
vn 0.2215 0.9009 0.3731
vn 0.2215 0.9751 0.0000
vn 0.2215 0.9009 -0.3731
vn 0.2215 0.6895 -0.6895
vn 0.2215 0.3731 -0.9009
vn -0.9672 0.1797 0.1797
vn -0.9672 0.2348 0.0972
vn -1.0000 0.0000 0.0000
vn 1.0000 0.0000 0.0000
vn -0.9672 0.2541 0.0000
vn 0.9672 0.2348 -0.0972
vn 0.9672 0.1797 -0.1797
vn 0.9672 -0.0972 -0.2348
vn 0.9672 0.0000 -0.2541
vn 0.9672 -0.2348 0.0972
vn 0.9672 -0.2541 0.0000
vn 0.9672 -0.2348 -0.0972
vn 0.9672 -0.1797 -0.1797
vn 0.9672 0.0972 -0.2348
vn -0.9672 0.0972 0.2348
vn -0.9672 0.0000 0.2541
usemtl None
s 1
f 4//1 20//2 19//3 3//4
f 12//5 28//6 27//7 11//8
f 5//9 21//10 20//2 4//1
f 13//11 29//12 28//6 12//5
f 6//13 22//14 21//10 5//9
f 14//15 30//16 29//12 13//11
f 7//17 23//18 22//14 6//13
f 15//19 31//20 30//16 14//15
f 8//21 24//22 23//18 7//17
f 16//23 32//24 31//20 15//19
f 9//25 25//26 24//22 8//21
f 2//27 18//28 17//29 1//30
f 1//30 17//29 32//24 16//23
f 10//31 26//32 25//26 9//25
f 3//4 19//3 18//28 2//27
f 11//8 27//7 26//32 10//31
f 36//33 35//34 51//35 52//36
f 44//37 43//38 59//39 60//40
f 37//41 36//33 52//36 53//42
f 45//43 44//37 60//40 61//44
f 38//45 37//41 53//42 54//46
f 46//47 45//43 61//44 62//48
f 39//49 38//45 54//46 55//50
f 47//51 46//47 62//48 63//52
f 40//53 39//49 55//50 56//54
f 48//55 47//51 63//52 64//56
f 41//57 40//53 56//54 57//58
f 34//59 33//60 49//61 50//62
f 33//60 48//55 64//56 49//61
f 42//63 41//57 57//58 58//64
f 35//34 34//59 50//62 51//35
f 43//38 42//63 58//64 59//39
f 52//36 51//35 115//65 116//66
f 67//67 66//68 41//57 42//63
f 49//61 64//56 128//69 113//70
f 69//71 67//67 42//63 43//38
f 26//32 27//7 107//72 106//73
f 71//74 69//71 43//38 44//37
f 51//35 50//62 114//75 115//65
f 73//76 71//74 44//37 45//43
f 64//56 63//52 127//77 128//69
f 75//78 73//76 45//43 46//47
f 25//26 26//32 106//73 105//79
f 77//80 75//78 46//47 47//51
f 81//81 80//82 33//60 34//59
f 50//62 49//61 113//70 114//75
f 83//83 77//80 47//51 48//55
f 85//84 81//81 34//59 35//34
f 63//52 62//48 126//85 127//77
f 80//82 83//83 48//55 33//60
f 87//86 85//84 35//34 36//33
f 24//22 25//26 105//79 104//87
f 62//48 61//44 125//88 126//85
f 89//89 87//86 36//33 37//41
f 23//18 24//22 104//87 103//90
f 61//44 60//40 124//91 125//88
f 91//92 89//89 37//41 38//45
f 22//14 23//18 103//90 102//93
f 60//40 59//39 123//94 124//91
f 93//95 91//92 38//45 39//49
f 21//10 22//14 102//93 101//96
f 95//97 93//95 39//49 40//53
f 59//39 58//64 122//98 123//94
f 66//68 95//97 40//53 41//57
f 9//25 8//21 96//99 65//100
f 65//100 96//99 95//97 66//68
f 8//21 7//17 94//101 96//99
f 96//99 94//101 93//95 95//97
f 7//17 6//13 92//102 94//101
f 94//101 92//102 91//92 93//95
f 6//13 5//9 90//103 92//102
f 92//102 90//103 89//89 91//92
f 5//9 4//1 88//104 90//103
f 90//103 88//104 87//86 89//89
f 4//1 3//4 86//105 88//104
f 88//104 86//105 85//84 87//86
f 1//30 16//23 84//106 79//107
f 79//107 84//106 83//83 80//82
f 3//4 2//27 82//108 86//105
f 86//105 82//108 81//81 85//84
f 16//23 15//19 78//109 84//106
f 84//106 78//109 77//80 83//83
f 2//27 1//30 79//107 82//108
f 82//108 79//107 80//82 81//81
f 15//19 14//15 76//110 78//109
f 78//109 76//110 75//78 77//80
f 14//15 13//11 74//111 76//110
f 76//110 74//111 73//76 75//78
f 13//11 12//5 72//112 74//111
f 74//111 72//112 71//74 73//76
f 12//5 11//8 70//113 72//112
f 72//112 70//113 69//71 71//74
f 11//8 10//31 68//114 70//113
f 70//113 68//114 67//67 69//71
f 10//31 9//25 65//100 68//114
f 68//114 65//100 66//68 67//67
f 119//115 118//116 130//117
f 104//87 105//79 129//118
f 118//116 117//119 130//117
f 103//90 104//87 129//118
f 117//119 116//66 130//117
f 102//93 103//90 129//118
f 116//66 115//65 130//117
f 113//70 128//69 130//117
f 101//96 102//93 129//118
f 115//65 114//75 130//117
f 128//69 127//77 130//117
f 100//120 101//96 129//118
f 114//75 113//70 130//117
f 127//77 126//85 130//117
f 99//121 100//120 129//118
f 112//122 97//123 129//118
f 27//7 28//6 108//124 107//72
f 53//42 52//36 116//66 117//119
f 28//6 29//12 109//125 108//124
f 54//46 53//42 117//119 118//116
f 29//12 30//16 110//126 109//125
f 55//50 54//46 118//116 119//115
f 30//16 31//20 111//127 110//126
f 17//29 18//28 98//128 97//123
f 56//54 55//50 119//115 120//129
f 31//20 32//24 112//122 111//127
f 18//28 19//3 99//121 98//128
f 57//58 56//54 120//129 121//130
f 32//24 17//29 97//123 112//122
f 19//3 20//2 100//120 99//121
f 58//64 57//58 121//130 122//98
f 20//2 21//10 101//96 100//120
f 105//79 106//73 129//118
f 120//129 119//115 130//117
f 106//73 107//72 129//118
f 121//130 120//129 130//117
f 107//72 108//124 129//118
f 122//98 121//130 130//117
f 108//124 109//125 129//118
f 123//94 122//98 130//117
f 109//125 110//126 129//118
f 124//91 123//94 130//117
f 110//126 111//127 129//118
f 97//123 98//128 129//118
f 125//88 124//91 130//117
f 111//127 112//122 129//118
f 98//128 99//121 129//118
f 126//85 125//88 130//117
l 130 129
