# Blender v2.78 (sub 0) OBJ File: 'track.blend'
# www.blender.org
mtllib track_turn.mtl
o Turn.export_Plane.007
v 10.000000 0.000000 -10.000000
v 10.000000 1.000000 -10.000000
v 10.000000 0.000000 -9.000000
v 10.000000 1.000000 -9.000000
v 10.000000 1.000000 -9.050000
v 10.000000 0.000000 -6.000000
v 10.000000 0.000000 -7.000000
v 10.000000 0.000000 -8.000000
v 10.000000 0.000000 -8.949253
v 10.000000 0.000000 -5.000000
v 10.000000 0.000000 10.000000
v 10.000000 1.000000 10.000000
v 10.000000 0.000000 9.000000
v 10.000000 1.000000 9.000000
v 10.000000 1.000000 9.050000
v 10.000000 0.000000 -4.000000
v 10.000000 0.000000 -3.000000
v 10.000000 0.000000 -2.000000
v 10.000000 0.000000 8.949253
v 10.000000 0.000000 -1.004613
v 10.000000 0.000000 -0.009227
v 10.000000 0.000000 0.986160
v 10.000000 0.000000 1.981547
v 10.000000 0.000000 2.976933
v 10.000000 0.000000 3.972320
v 10.000000 0.000000 4.967707
v 10.000000 0.000000 5.963093
v 10.000000 0.000000 6.958480
v 10.000000 0.000000 7.953866
v 10.000000 0.000000 -10.000000
v 10.000000 1.000000 -10.000000
v 9.826352 0.000000 -9.015192
v 9.826352 1.000000 -9.015192
v 9.835034 1.000000 -9.064433
v 9.305408 0.000000 -6.060769
v 9.479055 0.000000 -7.045577
v 9.652703 0.000000 -8.030384
v 9.817539 0.000000 -8.965217
v 9.131759 0.000000 -5.075961
v 6.527036 0.000000 9.696156
v 6.527036 1.000000 9.696156
v 6.700685 0.000000 8.711348
v 6.700685 1.000000 8.711348
v 6.692002 1.000000 8.760586
v 8.958111 0.000000 -4.091154
v 8.784463 0.000000 -3.106346
v 8.610814 0.000000 -2.121538
v 6.709496 0.000000 8.661371
v 8.437967 0.000000 -1.141274
v 8.265121 0.000000 -0.161010
v 8.092273 0.000000 0.819256
v 7.919426 0.000000 1.799520
v 7.746579 0.000000 2.779784
v 7.573731 0.000000 3.760049
v 7.400885 0.000000 4.740314
v 7.228038 0.000000 5.720577
v 7.055190 0.000000 6.700844
v 6.882343 0.000000 7.681107
v 10.000000 0.000000 -10.000000
v 10.000000 1.000000 -10.000000
v 9.657980 0.000000 -9.060308
v 9.657980 1.000000 -9.060308
v 9.675081 1.000000 -9.107292
v 8.631920 0.000000 -6.241230
v 8.973940 0.000000 -7.180922
v 9.315960 0.000000 -8.120615
v 9.640623 0.000000 -9.012621
v 8.289899 0.000000 -5.301537
v 3.159597 0.000000 8.793852
v 3.159597 1.000000 8.793852
v 3.501617 0.000000 7.854160
v 3.501617 1.000000 7.854160
v 3.484516 1.000000 7.901144
v 7.947879 0.000000 -4.361844
v 7.605859 0.000000 -3.422152
v 7.263839 0.000000 -2.482459
v 3.518973 0.000000 7.806473
v 6.923397 0.000000 -1.547102
v 6.582954 0.000000 -0.611744
v 6.242512 0.000000 0.323614
v 5.902070 0.000000 1.258970
v 5.561627 0.000000 2.194328
v 5.221185 0.000000 3.129686
v 4.880743 0.000000 4.065043
v 4.540300 0.000000 5.000401
v 4.199858 0.000000 5.935760
v 3.859416 0.000000 6.871117
v 10.000000 0.000000 -10.000000
v 10.000000 1.000000 -10.000000
v 9.500000 0.000000 -9.133975
v 9.500000 1.000000 -9.133975
v 9.525000 1.000000 -9.177276
v 8.000000 0.000000 -6.535898
v 8.500000 0.000000 -7.401924
v 9.000000 0.000000 -8.267949
v 9.474627 0.000000 -9.090027
v 7.500000 0.000000 -5.669873
v 0.000000 0.000000 7.320507
v 0.000000 1.000000 7.320507
v 0.500000 0.000000 6.454483
v 0.500000 1.000000 6.454483
v 0.475000 1.000000 6.497784
v 7.000000 0.000000 -4.803848
v 6.500000 0.000000 -3.937822
v 6.000000 0.000000 -3.071797
v 0.525373 0.000000 6.410534
v 5.502307 0.000000 -2.209767
v 5.004613 0.000000 -1.347736
v 4.506920 0.000000 -0.485706
v 4.009227 0.000000 0.376324
v 3.511533 0.000000 1.238354
v 3.013840 0.000000 2.100385
v 2.516147 0.000000 2.962414
v 2.018454 0.000000 3.824444
v 1.520760 0.000000 4.686475
v 1.023067 0.000000 5.548505
v 10.000000 0.000000 -10.000000
v 10.000000 1.000000 -10.000000
v 9.357212 0.000000 -9.233955
v 9.357212 1.000000 -9.233955
v 9.389352 1.000000 -9.272258
v 7.428849 0.000000 -6.935822
v 8.071637 0.000000 -7.701867
v 8.714425 0.000000 -8.467911
v 9.324593 0.000000 -9.195081
v 6.786062 0.000000 -6.169778
v -2.855753 0.000000 5.320889
v -2.855753 1.000000 5.320889
v -2.212965 0.000000 4.554844
v -2.212965 1.000000 4.554844
v -2.245104 1.000000 4.593146
v 6.143274 0.000000 -5.403733
v 5.500486 0.000000 -4.637689
v 4.857699 0.000000 -3.871644
v -2.180346 0.000000 4.515970
v 4.217877 0.000000 -3.109135
v 3.578054 0.000000 -2.346624
v 2.938232 0.000000 -1.584113
v 2.298410 0.000000 -0.821603
v 1.658587 0.000000 -0.059093
v 1.018765 0.000000 0.703419
v 0.378943 0.000000 1.465928
v -0.260879 0.000000 2.228438
v -0.900702 0.000000 2.990950
v -1.540524 0.000000 3.753460
v 10.000000 0.000000 -10.000000
v 10.000000 1.000000 -10.000000
v 9.233955 0.000000 -9.357212
v 9.233955 1.000000 -9.357212
v 9.272258 1.000000 -9.389352
v 6.935822 0.000000 -7.428850
v 7.701867 0.000000 -8.071637
v 8.467911 0.000000 -8.714425
v 9.195081 0.000000 -9.324593
v 6.169777 0.000000 -6.786062
v -5.320890 0.000000 2.855751
v -5.320890 1.000000 2.855751
v -4.554846 0.000000 2.212964
v -4.554846 1.000000 2.212964
v -4.593147 1.000000 2.245103
v 5.403733 0.000000 -6.143274
v 4.637689 0.000000 -5.500487
v 3.871644 0.000000 -4.857699
v -4.515971 0.000000 2.180345
v 3.109134 0.000000 -4.217877
v 2.346623 0.000000 -3.578055
v 1.584112 0.000000 -2.938233
v 0.821602 0.000000 -2.298411
v 0.059092 0.000000 -1.658588
v -0.703420 0.000000 -1.018766
v -1.465929 0.000000 -0.378944
v -2.228439 0.000000 0.260878
v -2.990951 0.000000 0.900701
v -3.753461 0.000000 1.540523
v 10.000000 0.000000 -10.000000
v 10.000000 1.000000 -10.000000
v 9.133974 0.000000 -9.500000
v 9.133974 1.000000 -9.500000
v 9.177276 1.000000 -9.525001
v 6.535898 0.000000 -8.000000
v 7.401924 0.000000 -8.500000
v 8.267949 0.000000 -9.000000
v 9.090027 0.000000 -9.474627
v 5.669873 0.000000 -7.500000
v -7.320509 0.000000 -0.000001
v -7.320509 1.000000 -0.000001
v -6.454483 0.000000 -0.500001
v -6.454483 1.000000 -0.500001
v -6.497784 1.000000 -0.475001
v 4.803847 0.000000 -7.000000
v 3.937822 0.000000 -6.500000
v 3.071796 0.000000 -6.000000
v -6.410536 0.000000 -0.525374
v 2.209767 0.000000 -5.502307
v 1.347736 0.000000 -5.004614
v 0.485705 0.000000 -4.506920
v -0.376324 0.000000 -4.009227
v -1.238355 0.000000 -3.511534
v -2.100385 0.000000 -3.013840
v -2.962415 0.000000 -2.516147
v -3.824445 0.000000 -2.018454
v -4.686476 0.000000 -1.520761
v -5.548506 0.000000 -1.023067
v 10.000000 0.000000 -10.000000
v 10.000000 1.000000 -10.000000
v 9.060308 0.000000 -9.657980
v 9.060308 1.000000 -9.657980
v 9.107292 1.000000 -9.675081
v 6.241229 0.000000 -8.631920
v 7.180922 0.000000 -8.973940
v 8.120615 0.000000 -9.315960
v 9.012621 0.000000 -9.640623
v 5.301537 0.000000 -8.289900
v -8.793854 0.000000 -3.159599
v -8.793854 1.000000 -3.159599
v -7.854160 0.000000 -3.501619
v -7.854160 1.000000 -3.501619
v -7.901144 1.000000 -3.484519
v 4.361844 0.000000 -7.947880
v 3.422151 0.000000 -7.605860
v 2.482459 0.000000 -7.263840
v -7.806475 0.000000 -3.518976
v 1.547102 0.000000 -6.923398
v 0.611744 0.000000 -6.582955
v -0.323614 0.000000 -6.242513
v -1.258971 0.000000 -5.902071
v -2.194329 0.000000 -5.561629
v -3.129687 0.000000 -5.221187
v -4.065044 0.000000 -4.880744
v -5.000401 0.000000 -4.540302
v -5.935760 0.000000 -4.199860
v -6.871117 0.000000 -3.859418
v 10.000000 0.000000 -10.000000
v 10.000000 1.000000 -10.000000
v 9.015192 0.000000 -9.826352
v 9.015192 1.000000 -9.826352
v 9.064433 1.000000 -9.835034
v 6.060769 0.000000 -9.305408
v 7.045577 0.000000 -9.479055
v 8.030384 0.000000 -9.652704
v 8.965217 0.000000 -9.817540
v 5.075961 0.000000 -9.131760
v -9.696156 0.000000 -6.527038
v -9.696156 1.000000 -6.527038
v -8.711348 0.000000 -6.700686
v -8.711348 1.000000 -6.700686
v -8.760588 1.000000 -6.692004
v 4.091153 0.000000 -8.958112
v 3.106346 0.000000 -8.784463
v 2.121538 0.000000 -8.610815
v -8.661371 0.000000 -6.709498
v 1.141273 0.000000 -8.437968
v 0.161009 0.000000 -8.265121
v -0.819256 0.000000 -8.092274
v -1.799520 0.000000 -7.919427
v -2.779785 0.000000 -7.746580
v -3.760050 0.000000 -7.573733
v -4.740314 0.000000 -7.400886
v -5.720578 0.000000 -7.228039
v -6.700844 0.000000 -7.055192
v -7.681108 0.000000 -6.882345
v 10.000000 0.000000 -10.000000
v 10.000000 1.000000 -10.000000
v 9.000000 0.000000 -10.000000
v 9.000000 1.000000 -10.000000
v 9.050000 1.000000 -10.000000
v 6.000000 0.000000 -10.000000
v 7.000000 0.000000 -10.000000
v 8.000000 0.000000 -10.000000
v 8.949253 0.000000 -10.000000
v 5.000000 0.000000 -10.000000
v -10.000000 0.000000 -10.000001
v -10.000000 1.000000 -10.000001
v -9.000000 0.000000 -10.000001
v -9.000000 1.000000 -10.000001
v -9.049999 1.000000 -10.000001
v 4.000000 0.000000 -10.000000
v 3.000000 0.000000 -10.000000
v 2.000000 0.000000 -10.000000
v -8.949253 0.000000 -10.000001
v 1.004614 0.000000 -10.000000
v 0.009227 0.000000 -10.000000
v -0.986160 0.000000 -10.000001
v -1.981546 0.000000 -10.000001
v -2.976933 0.000000 -10.000001
v -3.972321 0.000000 -10.000001
v -4.967707 0.000000 -10.000001
v -5.963093 0.000000 -10.000001
v -6.958481 0.000000 -10.000001
v -7.953867 0.000000 -10.000001
vn 0.0000 0.7071 0.7071
vn 0.0000 1.0000 0.0000
vn 0.0000 0.8944 0.4472
vn -0.8944 0.4472 0.0000
vn -0.0599 0.7259 0.6851
vn -0.1192 0.7273 0.6759
vn -0.2347 0.7273 0.6449
vn -0.3432 0.7273 0.5944
vn -0.4412 0.7273 0.5258
vn -0.5258 0.7273 0.4412
vn -0.5944 0.7273 0.3432
vn -0.6449 0.7273 0.2347
vn -0.6759 0.7273 0.1192
vn -0.6851 0.7259 0.0599
vn -0.0634 0.6866 0.7242
vn -0.1260 0.6880 0.7147
vn -0.2482 0.6880 0.6819
vn -0.3628 0.6880 0.6285
vn -0.4664 0.6880 0.5559
vn -0.5559 0.6880 0.4664
vn -0.6285 0.6880 0.3628
vn -0.6819 0.6880 0.2482
vn -0.7147 0.6880 0.1260
vn -0.7242 0.6866 0.0634
vn 0.0000 0.0000 1.0000
vn -0.7071 0.0000 0.7071
vn -1.0000 0.0000 0.0000
vn 0.1260 0.6880 -0.7147
vn 0.0634 0.6866 -0.7242
vn 0.2482 0.6880 -0.6819
vn 0.3628 0.6880 -0.6285
vn 0.4664 0.6880 -0.5559
vn 0.5559 0.6880 -0.4664
vn 0.6285 0.6880 -0.3628
vn 0.6819 0.6880 -0.2482
vn 0.7147 0.6880 -0.1260
vn 0.7242 0.6866 -0.0634
vn 0.1192 0.7273 -0.6759
vn 0.0599 0.7259 -0.6851
vn 0.2347 0.7273 -0.6449
vn 0.3432 0.7273 -0.5944
vn 0.4412 0.7273 -0.5258
vn 0.5258 0.7273 -0.4412
vn 0.5944 0.7273 -0.3432
vn 0.6449 0.7273 -0.2347
vn 0.6759 0.7273 -0.1192
vn 0.6851 0.7259 -0.0599
vn -0.1736 0.0000 0.9848
vn -0.0871 0.0000 0.9962
vn -0.3420 0.0000 0.9397
vn -0.5000 0.0000 0.8660
vn -0.6428 0.0000 0.7660
vn -0.7660 0.0000 0.6428
vn -0.8660 0.0000 0.5000
vn -0.9397 0.0000 0.3420
vn -0.9848 0.0000 0.1736
vn -0.9962 0.0000 0.0871
usemtl None
s 1
f 2//1 31//1 34//2 5//2
f 31//1 60//1 63//2 34//2
f 60//1 89//1 92//2 63//2
f 89//1 118//1 121//2 92//2
f 118//1 147//1 150//2 121//2
f 147//1 176//1 179//2 150//2
f 176//1 205//1 208//2 179//2
f 205//1 234//3 237//2 208//2
f 234//3 263//4 266//2 237//2
f 9//2 3//5 32//6 38//2
f 38//2 32//6 61//7 67//2
f 67//2 61//7 90//8 96//2
f 96//2 90//8 119//9 125//2
f 125//2 119//9 148//10 154//2
f 154//2 148//10 177//11 183//2
f 183//2 177//11 206//12 212//2
f 212//2 206//12 235//13 241//2
f 241//2 235//13 264//14 270//2
f 4//15 33//16 32//6 3//5
f 33//16 62//17 61//7 32//6
f 62//17 91//18 90//8 61//7
f 91//18 120//19 119//9 90//8
f 120//19 149//20 148//10 119//9
f 149//20 178//21 177//11 148//10
f 178//21 207//22 206//12 177//11
f 207//22 236//23 235//13 206//12
f 236//23 265//24 264//14 235//13
f 1//25 30//25 31//1 2//1
f 30//25 59//25 60//1 31//1
f 59//25 88//25 89//1 60//1
f 88//25 117//25 118//1 89//1
f 117//25 146//25 147//1 118//1
f 146//25 175//25 176//1 147//1
f 175//25 204//25 205//1 176//1
f 204//25 233//26 234//3 205//1
f 233//26 262//27 263//4 234//3
f 5//2 34//2 33//16 4//15
f 34//2 63//2 62//17 33//16
f 63//2 92//2 91//18 62//17
f 92//2 121//2 120//19 91//18
f 121//2 150//2 149//20 120//19
f 150//2 179//2 178//21 149//20
f 179//2 208//2 207//22 178//21
f 208//2 237//2 236//23 207//22
f 237//2 266//2 265//24 236//23
f 10//2 6//2 35//2 39//2
f 39//2 35//2 64//2 68//2
f 68//2 64//2 93//2 97//2
f 97//2 93//2 122//2 126//2
f 126//2 122//2 151//2 155//2
f 155//2 151//2 180//2 184//2
f 184//2 180//2 209//2 213//2
f 213//2 209//2 238//2 242//2
f 242//2 238//2 267//2 271//2
f 6//2 7//2 36//2 35//2
f 35//2 36//2 65//2 64//2
f 64//2 65//2 94//2 93//2
f 93//2 94//2 123//2 122//2
f 122//2 123//2 152//2 151//2
f 151//2 152//2 181//2 180//2
f 180//2 181//2 210//2 209//2
f 209//2 210//2 239//2 238//2
f 238//2 239//2 268//2 267//2
f 7//2 8//2 37//2 36//2
f 36//2 37//2 66//2 65//2
f 65//2 66//2 95//2 94//2
f 94//2 95//2 124//2 123//2
f 123//2 124//2 153//2 152//2
f 152//2 153//2 182//2 181//2
f 181//2 182//2 211//2 210//2
f 210//2 211//2 240//2 239//2
f 239//2 240//2 269//2 268//2
f 8//2 9//2 38//2 37//2
f 37//2 38//2 67//2 66//2
f 66//2 67//2 96//2 95//2
f 95//2 96//2 125//2 124//2
f 124//2 125//2 154//2 153//2
f 153//2 154//2 183//2 182//2
f 182//2 183//2 212//2 211//2
f 211//2 212//2 241//2 240//2
f 240//2 241//2 270//2 269//2
f 15//2 44//2 41//16 12//15
f 44//2 73//2 70//17 41//16
f 73//2 102//2 99//18 70//17
f 102//2 131//2 128//19 99//18
f 131//2 160//2 157//20 128//19
f 160//2 189//2 186//21 157//20
f 189//2 218//2 215//22 186//21
f 218//2 247//2 244//23 215//22
f 247//2 276//2 273//24 244//23
f 19//2 48//2 42//28 13//29
f 48//2 77//2 71//30 42//28
f 77//2 106//2 100//31 71//30
f 106//2 135//2 129//32 100//31
f 135//2 164//2 158//33 129//32
f 164//2 193//2 187//34 158//33
f 193//2 222//2 216//35 187//34
f 222//2 251//2 245//36 216//35
f 251//2 280//2 274//37 245//36
f 13//29 42//28 43//38 14//39
f 42//28 71//30 72//40 43//38
f 71//30 100//31 101//41 72//40
f 100//31 129//32 130//42 101//41
f 129//32 158//33 159//43 130//42
f 158//33 187//34 188//44 159//43
f 187//34 216//35 217//45 188//44
f 216//35 245//36 246//46 217//45
f 245//36 274//37 275//47 246//46
f 12//15 41//16 40//48 11//49
f 41//16 70//17 69//50 40//48
f 70//17 99//18 98//51 69//50
f 99//18 128//19 127//52 98//51
f 128//19 157//20 156//53 127//52
f 157//20 186//21 185//54 156//53
f 186//21 215//22 214//55 185//54
f 215//22 244//23 243//56 214//55
f 244//23 273//24 272//57 243//56
f 14//39 43//38 44//2 15//2
f 43//38 72//40 73//2 44//2
f 72//40 101//41 102//2 73//2
f 101//41 130//42 131//2 102//2
f 130//42 159//43 160//2 131//2
f 159//43 188//44 189//2 160//2
f 188//44 217//45 218//2 189//2
f 217//45 246//46 247//2 218//2
f 246//46 275//47 276//2 247//2
f 10//2 39//2 45//2 16//2
f 39//2 68//2 74//2 45//2
f 68//2 97//2 103//2 74//2
f 97//2 126//2 132//2 103//2
f 126//2 155//2 161//2 132//2
f 155//2 184//2 190//2 161//2
f 184//2 213//2 219//2 190//2
f 213//2 242//2 248//2 219//2
f 242//2 271//2 277//2 248//2
f 16//2 45//2 46//2 17//2
f 45//2 74//2 75//2 46//2
f 74//2 103//2 104//2 75//2
f 103//2 132//2 133//2 104//2
f 132//2 161//2 162//2 133//2
f 161//2 190//2 191//2 162//2
f 190//2 219//2 220//2 191//2
f 219//2 248//2 249//2 220//2
f 248//2 277//2 278//2 249//2
f 17//2 46//2 47//2 18//2
f 46//2 75//2 76//2 47//2
f 75//2 104//2 105//2 76//2
f 104//2 133//2 134//2 105//2
f 133//2 162//2 163//2 134//2
f 162//2 191//2 192//2 163//2
f 191//2 220//2 221//2 192//2
f 220//2 249//2 250//2 221//2
f 249//2 278//2 279//2 250//2
f 29//2 58//2 48//2 19//2
f 58//2 87//2 77//2 48//2
f 87//2 116//2 106//2 77//2
f 116//2 145//2 135//2 106//2
f 145//2 174//2 164//2 135//2
f 174//2 203//2 193//2 164//2
f 203//2 232//2 222//2 193//2
f 232//2 261//2 251//2 222//2
f 261//2 290//2 280//2 251//2
f 18//2 47//2 49//2 20//2
f 47//2 76//2 78//2 49//2
f 76//2 105//2 107//2 78//2
f 105//2 134//2 136//2 107//2
f 134//2 163//2 165//2 136//2
f 163//2 192//2 194//2 165//2
f 192//2 221//2 223//2 194//2
f 221//2 250//2 252//2 223//2
f 250//2 279//2 281//2 252//2
f 20//2 49//2 50//2 21//2
f 49//2 78//2 79//2 50//2
f 78//2 107//2 108//2 79//2
f 107//2 136//2 137//2 108//2
f 136//2 165//2 166//2 137//2
f 165//2 194//2 195//2 166//2
f 194//2 223//2 224//2 195//2
f 223//2 252//2 253//2 224//2
f 252//2 281//2 282//2 253//2
f 21//2 50//2 51//2 22//2
f 50//2 79//2 80//2 51//2
f 79//2 108//2 109//2 80//2
f 108//2 137//2 138//2 109//2
f 137//2 166//2 167//2 138//2
f 166//2 195//2 196//2 167//2
f 195//2 224//2 225//2 196//2
f 224//2 253//2 254//2 225//2
f 253//2 282//2 283//2 254//2
f 22//2 51//2 52//2 23//2
f 51//2 80//2 81//2 52//2
f 80//2 109//2 110//2 81//2
f 109//2 138//2 139//2 110//2
f 138//2 167//2 168//2 139//2
f 167//2 196//2 197//2 168//2
f 196//2 225//2 226//2 197//2
f 225//2 254//2 255//2 226//2
f 254//2 283//2 284//2 255//2
f 23//2 52//2 53//2 24//2
f 52//2 81//2 82//2 53//2
f 81//2 110//2 111//2 82//2
f 110//2 139//2 140//2 111//2
f 139//2 168//2 169//2 140//2
f 168//2 197//2 198//2 169//2
f 197//2 226//2 227//2 198//2
f 226//2 255//2 256//2 227//2
f 255//2 284//2 285//2 256//2
f 24//2 53//2 54//2 25//2
f 53//2 82//2 83//2 54//2
f 82//2 111//2 112//2 83//2
f 111//2 140//2 141//2 112//2
f 140//2 169//2 170//2 141//2
f 169//2 198//2 199//2 170//2
f 198//2 227//2 228//2 199//2
f 227//2 256//2 257//2 228//2
f 256//2 285//2 286//2 257//2
f 25//2 54//2 55//2 26//2
f 54//2 83//2 84//2 55//2
f 83//2 112//2 113//2 84//2
f 112//2 141//2 142//2 113//2
f 141//2 170//2 171//2 142//2
f 170//2 199//2 200//2 171//2
f 199//2 228//2 229//2 200//2
f 228//2 257//2 258//2 229//2
f 257//2 286//2 287//2 258//2
f 26//2 55//2 56//2 27//2
f 55//2 84//2 85//2 56//2
f 84//2 113//2 114//2 85//2
f 113//2 142//2 143//2 114//2
f 142//2 171//2 172//2 143//2
f 171//2 200//2 201//2 172//2
f 200//2 229//2 230//2 201//2
f 229//2 258//2 259//2 230//2
f 258//2 287//2 288//2 259//2
f 27//2 56//2 57//2 28//2
f 56//2 85//2 86//2 57//2
f 85//2 114//2 115//2 86//2
f 114//2 143//2 144//2 115//2
f 143//2 172//2 173//2 144//2
f 172//2 201//2 202//2 173//2
f 201//2 230//2 231//2 202//2
f 230//2 259//2 260//2 231//2
f 259//2 288//2 289//2 260//2
f 28//2 57//2 58//2 29//2
f 57//2 86//2 87//2 58//2
f 86//2 115//2 116//2 87//2
f 115//2 144//2 145//2 116//2
f 144//2 173//2 174//2 145//2
f 173//2 202//2 203//2 174//2
f 202//2 231//2 232//2 203//2
f 231//2 260//2 261//2 232//2
f 260//2 289//2 290//2 261//2
